<mxfile host="app.diagrams.net" modified="2023-12-14T06:59:00.766Z" agent="Mozilla/5.0 (Windows NT 10.0; Win64; x64) AppleWebKit/537.36 (KHTML, like Gecko) Chrome/120.0.0.0 Safari/537.36" etag="a-4Mz-qQl2qAZIGTGL7E" version="22.1.8" type="github">
  <diagram id="C5RBs43oDa-KdzZeNtuy" name="Page-1">
    <mxGraphModel dx="1221" dy="725" grid="0" gridSize="10" guides="1" tooltips="1" connect="1" arrows="1" fold="1" page="1" pageScale="1" pageWidth="827" pageHeight="1169" math="0" shadow="0">
      <root>
        <mxCell id="WIyWlLk6GJQsqaUBKTNV-0" />
        <mxCell id="WIyWlLk6GJQsqaUBKTNV-1" parent="WIyWlLk6GJQsqaUBKTNV-0" />
        <mxCell id="ooOYcOs6BhuUH5eESV9l-4" style="rounded=0;orthogonalLoop=1;jettySize=auto;html=1;exitX=1;exitY=0.3333333333333333;exitDx=0;exitDy=0;exitPerimeter=0;endArrow=none;endFill=0;" edge="1" parent="WIyWlLk6GJQsqaUBKTNV-1" source="ooOYcOs6BhuUH5eESV9l-0" target="ooOYcOs6BhuUH5eESV9l-1">
          <mxGeometry relative="1" as="geometry" />
        </mxCell>
        <mxCell id="ooOYcOs6BhuUH5eESV9l-5" style="rounded=0;orthogonalLoop=1;jettySize=auto;html=1;exitX=1;exitY=0.3333333333333333;exitDx=0;exitDy=0;exitPerimeter=0;entryX=0;entryY=0.5;entryDx=0;entryDy=0;endArrow=none;endFill=0;" edge="1" parent="WIyWlLk6GJQsqaUBKTNV-1" source="ooOYcOs6BhuUH5eESV9l-0" target="ooOYcOs6BhuUH5eESV9l-2">
          <mxGeometry relative="1" as="geometry" />
        </mxCell>
        <mxCell id="ooOYcOs6BhuUH5eESV9l-0" value="用户" style="shape=umlActor;verticalLabelPosition=bottom;verticalAlign=top;html=1;outlineConnect=0;" vertex="1" parent="WIyWlLk6GJQsqaUBKTNV-1">
          <mxGeometry x="530" y="310" width="30" height="60" as="geometry" />
        </mxCell>
        <mxCell id="ooOYcOs6BhuUH5eESV9l-1" value="转码服务部署" style="ellipse;whiteSpace=wrap;html=1;" vertex="1" parent="WIyWlLk6GJQsqaUBKTNV-1">
          <mxGeometry x="640" y="260" width="120" height="50" as="geometry" />
        </mxCell>
        <mxCell id="ooOYcOs6BhuUH5eESV9l-2" value="视频转码" style="ellipse;whiteSpace=wrap;html=1;" vertex="1" parent="WIyWlLk6GJQsqaUBKTNV-1">
          <mxGeometry x="640" y="370" width="120" height="50" as="geometry" />
        </mxCell>
        <mxCell id="ooOYcOs6BhuUH5eESV9l-6" style="edgeStyle=orthogonalEdgeStyle;rounded=0;orthogonalLoop=1;jettySize=auto;html=1;exitX=0.5;exitY=1;exitDx=0;exitDy=0;" edge="1" parent="WIyWlLk6GJQsqaUBKTNV-1" source="ooOYcOs6BhuUH5eESV9l-7">
          <mxGeometry relative="1" as="geometry">
            <mxPoint x="163" y="240" as="targetPoint" />
          </mxGeometry>
        </mxCell>
        <mxCell id="ooOYcOs6BhuUH5eESV9l-7" value="接收请求" style="rounded=1;whiteSpace=wrap;html=1;fontSize=12;glass=0;strokeWidth=1;shadow=0;" vertex="1" parent="WIyWlLk6GJQsqaUBKTNV-1">
          <mxGeometry x="103" y="150" width="120" height="40" as="geometry" />
        </mxCell>
        <mxCell id="ooOYcOs6BhuUH5eESV9l-21" value="" style="edgeStyle=orthogonalEdgeStyle;rounded=0;orthogonalLoop=1;jettySize=auto;html=1;" edge="1" parent="WIyWlLk6GJQsqaUBKTNV-1" source="ooOYcOs6BhuUH5eESV9l-16" target="ooOYcOs6BhuUH5eESV9l-20">
          <mxGeometry relative="1" as="geometry" />
        </mxCell>
        <mxCell id="ooOYcOs6BhuUH5eESV9l-16" value="获取视频" style="rounded=1;whiteSpace=wrap;html=1;fontSize=12;glass=0;strokeWidth=1;shadow=0;" vertex="1" parent="WIyWlLk6GJQsqaUBKTNV-1">
          <mxGeometry x="103" y="239" width="120" height="40" as="geometry" />
        </mxCell>
        <mxCell id="ooOYcOs6BhuUH5eESV9l-17" style="edgeStyle=orthogonalEdgeStyle;rounded=0;orthogonalLoop=1;jettySize=auto;html=1;exitX=0.5;exitY=1;exitDx=0;exitDy=0;exitPerimeter=0;entryX=0.5;entryY=0;entryDx=0;entryDy=0;" edge="1" parent="WIyWlLk6GJQsqaUBKTNV-1" source="ooOYcOs6BhuUH5eESV9l-18" target="ooOYcOs6BhuUH5eESV9l-7">
          <mxGeometry relative="1" as="geometry" />
        </mxCell>
        <mxCell id="ooOYcOs6BhuUH5eESV9l-18" value="开始" style="strokeWidth=1;html=1;shape=mxgraph.flowchart.terminator;whiteSpace=wrap;" vertex="1" parent="WIyWlLk6GJQsqaUBKTNV-1">
          <mxGeometry x="103" y="58" width="120" height="42" as="geometry" />
        </mxCell>
        <mxCell id="ooOYcOs6BhuUH5eESV9l-19" value="结束" style="strokeWidth=1;html=1;shape=mxgraph.flowchart.terminator;whiteSpace=wrap;" vertex="1" parent="WIyWlLk6GJQsqaUBKTNV-1">
          <mxGeometry x="103" y="480" width="120" height="42" as="geometry" />
        </mxCell>
        <mxCell id="ooOYcOs6BhuUH5eESV9l-20" value="视频转码" style="rounded=1;whiteSpace=wrap;html=1;fontSize=12;glass=0;strokeWidth=1;shadow=0;" vertex="1" parent="WIyWlLk6GJQsqaUBKTNV-1">
          <mxGeometry x="103" y="320" width="120" height="40" as="geometry" />
        </mxCell>
        <mxCell id="ooOYcOs6BhuUH5eESV9l-23" value="" style="edgeStyle=orthogonalEdgeStyle;rounded=0;orthogonalLoop=1;jettySize=auto;html=1;" edge="1" parent="WIyWlLk6GJQsqaUBKTNV-1" target="ooOYcOs6BhuUH5eESV9l-22">
          <mxGeometry relative="1" as="geometry">
            <mxPoint x="170" y="398" as="targetPoint" />
            <mxPoint x="163" y="360" as="sourcePoint" />
          </mxGeometry>
        </mxCell>
        <mxCell id="ooOYcOs6BhuUH5eESV9l-24" style="edgeStyle=orthogonalEdgeStyle;rounded=0;orthogonalLoop=1;jettySize=auto;html=1;" edge="1" parent="WIyWlLk6GJQsqaUBKTNV-1" source="ooOYcOs6BhuUH5eESV9l-22" target="ooOYcOs6BhuUH5eESV9l-19">
          <mxGeometry relative="1" as="geometry" />
        </mxCell>
        <mxCell id="ooOYcOs6BhuUH5eESV9l-22" value="发送给用户" style="rounded=1;whiteSpace=wrap;html=1;fontSize=12;glass=0;strokeWidth=1;shadow=0;" vertex="1" parent="WIyWlLk6GJQsqaUBKTNV-1">
          <mxGeometry x="103" y="405" width="120" height="40" as="geometry" />
        </mxCell>
      </root>
    </mxGraphModel>
  </diagram>
</mxfile>
